<mxfile host="Electron" modified="2024-05-14T22:09:14.458Z" agent="Mozilla/5.0 (Windows NT 10.0; Win64; x64) AppleWebKit/537.36 (KHTML, like Gecko) draw.io/24.0.4 Chrome/120.0.6099.109 Electron/28.1.0 Safari/537.36" etag="bCldffZLbugnGJEIGx-5" version="24.0.4" type="device">
  <diagram name="PÃ¡gina-1" id="rnQ-FR-HW7EkudksvXDS">
    <mxGraphModel dx="1489" dy="478" grid="1" gridSize="10" guides="1" tooltips="1" connect="1" arrows="1" fold="1" page="1" pageScale="1" pageWidth="827" pageHeight="1169" math="0" shadow="0">
      <root>
        <mxCell id="0" />
        <mxCell id="1" parent="0" />
        <mxCell id="elaqadn__Zsb7Rm-6npa-1" value="Proyecto" style="swimlane;fontStyle=1;align=center;verticalAlign=top;childLayout=stackLayout;horizontal=1;startSize=26;horizontalStack=0;resizeParent=1;resizeParentMax=0;resizeLast=0;collapsible=1;marginBottom=0;whiteSpace=wrap;html=1;fillColor=#F45B69;fontColor=#E4FDE1;strokeColor=#028090;rounded=1;labelBackgroundColor=none;swimlaneFillColor=default;" parent="1" vertex="1">
          <mxGeometry x="-10" y="150" width="290" height="340" as="geometry" />
        </mxCell>
        <mxCell id="elaqadn__Zsb7Rm-6npa-2" value="&lt;div&gt;&lt;span style=&quot;background-color: initial;&quot;&gt;- fechaInicio : Date&lt;/span&gt;&lt;br&gt;&lt;/div&gt;&lt;div&gt;- fechaFin : Date&lt;/div&gt;&lt;div&gt;- objetivo : String&lt;/div&gt;&lt;div&gt;- numeroDeIntegrantes : Integer&lt;/div&gt;&lt;div&gt;- montoDiario&amp;nbsp;&lt;span style=&quot;background-color: initial;&quot;&gt;: Real&lt;/span&gt;&lt;div style=&quot;background-color:#2f2f2f;padding:0px 0px 0px 2px;&quot;&gt;&lt;div style=&quot;color: rgb(170, 170, 170); font-family: Consolas; font-size: 10pt; white-space: pre;&quot;&gt;&lt;p style=&quot;background-color:#373737;margin:0;&quot;&gt;&lt;span style=&quot;color:#d9e8f7;&quot;&gt;&lt;/span&gt;&lt;/p&gt;&lt;/div&gt;&lt;/div&gt;&lt;/div&gt;&lt;div&gt;- margenDeGanancia : Integer&lt;/div&gt;" style="text;strokeColor=none;fillColor=none;align=left;verticalAlign=top;spacingLeft=4;spacingRight=4;overflow=hidden;rotatable=0;points=[[0,0.5],[1,0.5]];portConstraint=eastwest;whiteSpace=wrap;html=1;rounded=1;labelBackgroundColor=none;fontColor=#E4FDE1;" parent="elaqadn__Zsb7Rm-6npa-1" vertex="1">
          <mxGeometry y="26" width="290" height="104" as="geometry" />
        </mxCell>
        <mxCell id="elaqadn__Zsb7Rm-6npa-3" value="" style="line;strokeWidth=1;fillColor=none;align=left;verticalAlign=middle;spacingTop=-1;spacingLeft=3;spacingRight=3;rotatable=0;labelPosition=right;points=[];portConstraint=eastwest;strokeColor=#028090;rounded=1;labelBackgroundColor=none;fontColor=#E4FDE1;" parent="elaqadn__Zsb7Rm-6npa-1" vertex="1">
          <mxGeometry y="130" width="290" height="8" as="geometry" />
        </mxCell>
        <mxCell id="elaqadn__Zsb7Rm-6npa-4" value="+&amp;lt;&amp;lt;Create&amp;gt;&amp;gt; Proyecto(&lt;span style=&quot;background-color: initial;&quot;&gt;fechaInicio : Date,&amp;nbsp;&lt;/span&gt;&lt;span style=&quot;background-color: initial;&quot;&gt;fechaFin : Date,&amp;nbsp;&lt;/span&gt;&lt;span style=&quot;background-color: initial;&quot;&gt;objetivo : String,&lt;/span&gt;&lt;span style=&quot;background-color: initial;&quot;&gt;&amp;nbsp;numeroDeIntegrantes : Integer,&lt;/span&gt;&lt;span style=&quot;background-color: initial;&quot;&gt;&amp;nbsp;montoDiario&amp;nbsp;&lt;/span&gt;&lt;span style=&quot;background-color: initial;&quot;&gt;: Real&amp;nbsp;&lt;/span&gt;)&lt;div&gt;+ setObjetivo (objetivo:String)&lt;/div&gt;&lt;div&gt;&lt;span style=&quot;background-color: initial;&quot;&gt;+ getObjetivo(): String&lt;/span&gt;&lt;br&gt;&lt;/div&gt;&lt;div&gt;&lt;span style=&quot;background-color: initial;&quot;&gt;+ getEstado() : State&lt;/span&gt;&lt;br&gt;&lt;/div&gt;&lt;div&gt;&lt;span style=&quot;background-color: initial;&quot;&gt;+ cambiarEstado (estado : State)&lt;/span&gt;&lt;br&gt;&lt;/div&gt;&lt;div&gt;&lt;span style=&quot;background-color: initial;&quot;&gt;+ setMargenDeGanancias(ganancia: Integer) &lt;/span&gt;&lt;span style=&quot;background-color: initial;&quot;&gt;+&amp;nbsp;&lt;/span&gt;&lt;span style=&quot;background-color: initial;&quot;&gt;cantidadDeDiasTotales():Integer&lt;/span&gt;&lt;/div&gt;&lt;div&gt;&lt;span style=&quot;background-color: initial;&quot;&gt;+ costoDelProyecto&lt;/span&gt;&lt;span style=&quot;background-color: initial;&quot;&gt;():Real&lt;/span&gt;&lt;br&gt;&lt;/div&gt;&lt;div&gt;+ precioDelProyecto() : Real&lt;br&gt;&lt;/div&gt;&lt;div&gt;&lt;span style=&quot;background-color: initial;&quot;&gt;+ aprobarEtapa()&amp;nbsp;&lt;/span&gt;&lt;/div&gt;&lt;div&gt;+ cancelarProyecto()&lt;/div&gt;&lt;div style=&quot;background-color:#2f2f2f;padding:0px 0px 0px 2px;&quot;&gt;&lt;div style=&quot;color: rgb(170, 170, 170); font-family: Consolas; font-size: 10pt; white-space: pre;&quot;&gt;&lt;p style=&quot;background-color:#373737;margin:0;&quot;&gt;&lt;span style=&quot;color:#d9e8f7;&quot;&gt;&lt;/span&gt;&lt;/p&gt;&lt;/div&gt;&lt;/div&gt;" style="text;strokeColor=none;fillColor=none;align=left;verticalAlign=top;spacingLeft=4;spacingRight=4;overflow=hidden;rotatable=0;points=[[0,0.5],[1,0.5]];portConstraint=eastwest;whiteSpace=wrap;html=1;rounded=1;labelBackgroundColor=none;fontColor=#E4FDE1;" parent="elaqadn__Zsb7Rm-6npa-1" vertex="1">
          <mxGeometry y="138" width="290" height="202" as="geometry" />
        </mxCell>
        <mxCell id="elaqadn__Zsb7Rm-6npa-5" value="&amp;lt;abstract&amp;gt; Estado" style="swimlane;fontStyle=0;childLayout=stackLayout;horizontal=1;startSize=26;fillColor=#F45B69;horizontalStack=0;resizeParent=1;resizeParentMax=0;resizeLast=0;collapsible=1;marginBottom=0;whiteSpace=wrap;html=1;fontColor=#E4FDE1;strokeColor=#028090;rounded=1;labelBackgroundColor=none;swimlaneFillColor=default;" parent="1" vertex="1">
          <mxGeometry x="460" y="150" width="260" height="130" as="geometry" />
        </mxCell>
        <mxCell id="G7_AeDBWMxpFMUD4EurX-3" value="+&amp;lt;&amp;lt;Create&amp;gt;&amp;gt; Estado( proyecto : Proyecto)&lt;div&gt;+ &amp;lt;&amp;lt;abstract&amp;gt;&amp;gt; aprobarEtapa()&lt;/div&gt;&lt;div&gt;+ modificarMargenDeGanancia (ganancia : Integer)&lt;/div&gt;&lt;div&gt;+ cancelarProyecto();&lt;/div&gt;&lt;div&gt;&lt;br&gt;&lt;/div&gt;&lt;div style=&quot;background-color:#2f2f2f;padding:0px 0px 0px 2px;&quot;&gt;&lt;div style=&quot;color: rgb(170, 170, 170); font-family: Consolas; font-size: 10pt; white-space: pre;&quot;&gt;&lt;p style=&quot;background-color:#373737;margin:0;&quot;&gt;&lt;span style=&quot;color:#d9e8f7;&quot;&gt;&lt;/span&gt;&lt;/p&gt;&lt;/div&gt;&lt;/div&gt;" style="text;strokeColor=none;fillColor=none;align=left;verticalAlign=top;spacingLeft=4;spacingRight=4;overflow=hidden;rotatable=0;points=[[0,0.5],[1,0.5]];portConstraint=eastwest;whiteSpace=wrap;html=1;rounded=1;labelBackgroundColor=none;fontColor=#E4FDE1;" parent="elaqadn__Zsb7Rm-6npa-5" vertex="1">
          <mxGeometry y="26" width="260" height="104" as="geometry" />
        </mxCell>
        <mxCell id="elaqadn__Zsb7Rm-6npa-12" value="- estado" style="endArrow=block;endFill=1;html=1;edgeStyle=orthogonalEdgeStyle;align=left;verticalAlign=top;rounded=1;labelBackgroundColor=none;strokeColor=#028090;fontColor=default;" parent="1" source="elaqadn__Zsb7Rm-6npa-2" target="elaqadn__Zsb7Rm-6npa-5" edge="1">
          <mxGeometry x="-0.434" y="23" relative="1" as="geometry">
            <mxPoint x="280" y="213" as="sourcePoint" />
            <mxPoint x="490" y="210" as="targetPoint" />
            <Array as="points">
              <mxPoint x="365" y="238" />
              <mxPoint x="365" y="240" />
            </Array>
            <mxPoint as="offset" />
          </mxGeometry>
        </mxCell>
        <mxCell id="elaqadn__Zsb7Rm-6npa-13" value="1" style="edgeLabel;resizable=0;html=1;align=left;verticalAlign=bottom;rounded=1;labelBackgroundColor=none;fontColor=#E4FDE1;" parent="elaqadn__Zsb7Rm-6npa-12" connectable="0" vertex="1">
          <mxGeometry x="-1" relative="1" as="geometry">
            <mxPoint x="40" y="-3" as="offset" />
          </mxGeometry>
        </mxCell>
        <mxCell id="elaqadn__Zsb7Rm-6npa-16" value="# proyecto" style="endArrow=block;endFill=1;html=1;edgeStyle=orthogonalEdgeStyle;align=left;verticalAlign=top;rounded=1;entryX=0.5;entryY=0;entryDx=0;entryDy=0;exitX=0.5;exitY=0;exitDx=0;exitDy=0;labelBackgroundColor=none;strokeColor=#028090;fontColor=default;" parent="1" source="elaqadn__Zsb7Rm-6npa-5" target="elaqadn__Zsb7Rm-6npa-1" edge="1">
          <mxGeometry x="0.0337" y="-30" relative="1" as="geometry">
            <mxPoint x="330" y="310" as="sourcePoint" />
            <mxPoint x="490" y="310" as="targetPoint" />
            <mxPoint as="offset" />
          </mxGeometry>
        </mxCell>
        <mxCell id="elaqadn__Zsb7Rm-6npa-17" value="1" style="edgeLabel;resizable=0;html=1;align=left;verticalAlign=bottom;rounded=1;labelBackgroundColor=none;fontColor=#E4FDE1;" parent="elaqadn__Zsb7Rm-6npa-16" connectable="0" vertex="1">
          <mxGeometry x="-1" relative="1" as="geometry">
            <mxPoint x="-260" y="-20" as="offset" />
          </mxGeometry>
        </mxCell>
        <mxCell id="elaqadn__Zsb7Rm-6npa-18" value="EnConstruccion" style="swimlane;fontStyle=0;childLayout=stackLayout;horizontal=1;startSize=26;fillColor=#F45B69;horizontalStack=0;resizeParent=1;resizeParentMax=0;resizeLast=0;collapsible=1;marginBottom=0;whiteSpace=wrap;html=1;fontColor=#E4FDE1;strokeColor=#028090;rounded=1;labelBackgroundColor=none;swimlaneFillColor=default;" parent="1" vertex="1">
          <mxGeometry x="310" y="350" width="220" height="90" as="geometry" />
        </mxCell>
        <mxCell id="xnKCgcT63qczrDErJ37x-6" value="+&amp;lt;&amp;lt;Create&amp;gt;&amp;gt; EnConstruccion( proyecto : Proyecto)&lt;div&gt;+&amp;nbsp; aprobarEtapa()&lt;/div&gt;&lt;div&gt;&lt;br&gt;&lt;/div&gt;&lt;div style=&quot;background-color:#2f2f2f;padding:0px 0px 0px 2px;&quot;&gt;&lt;div style=&quot;color: rgb(170, 170, 170); font-family: Consolas; font-size: 10pt; white-space: pre;&quot;&gt;&lt;p style=&quot;background-color:#373737;margin:0;&quot;&gt;&lt;span style=&quot;color:#d9e8f7;&quot;&gt;&lt;/span&gt;&lt;/p&gt;&lt;/div&gt;&lt;/div&gt;" style="text;strokeColor=none;fillColor=none;align=left;verticalAlign=top;spacingLeft=4;spacingRight=4;overflow=hidden;rotatable=0;points=[[0,0.5],[1,0.5]];portConstraint=eastwest;whiteSpace=wrap;html=1;rounded=1;labelBackgroundColor=none;fontColor=#E4FDE1;" vertex="1" parent="elaqadn__Zsb7Rm-6npa-18">
          <mxGeometry y="26" width="220" height="64" as="geometry" />
        </mxCell>
        <mxCell id="elaqadn__Zsb7Rm-6npa-30" value="&lt;span style=&quot;text-align: left;&quot;&gt;EnEvaluacion&lt;/span&gt;" style="swimlane;fontStyle=0;childLayout=stackLayout;horizontal=1;startSize=26;fillColor=#F45B69;horizontalStack=0;resizeParent=1;resizeParentMax=0;resizeLast=0;collapsible=1;marginBottom=0;whiteSpace=wrap;html=1;fontColor=#E4FDE1;strokeColor=#028090;rounded=1;labelBackgroundColor=none;swimlaneFillColor=default;" parent="1" vertex="1">
          <mxGeometry x="640" y="350" width="190" height="90" as="geometry" />
        </mxCell>
        <mxCell id="xnKCgcT63qczrDErJ37x-7" value="+&amp;lt;&amp;lt;Create&amp;gt;&amp;gt; EnEvaluacion( proyecto : Proyecto)&lt;div&gt;+&amp;nbsp; aprobarEtapa()&lt;/div&gt;&lt;div&gt;&lt;br&gt;&lt;/div&gt;&lt;div style=&quot;background-color:#2f2f2f;padding:0px 0px 0px 2px;&quot;&gt;&lt;div style=&quot;color: rgb(170, 170, 170); font-family: Consolas; font-size: 10pt; white-space: pre;&quot;&gt;&lt;p style=&quot;background-color:#373737;margin:0;&quot;&gt;&lt;span style=&quot;color:#d9e8f7;&quot;&gt;&lt;/span&gt;&lt;/p&gt;&lt;/div&gt;&lt;/div&gt;" style="text;strokeColor=none;fillColor=none;align=left;verticalAlign=top;spacingLeft=4;spacingRight=4;overflow=hidden;rotatable=0;points=[[0,0.5],[1,0.5]];portConstraint=eastwest;whiteSpace=wrap;html=1;rounded=1;labelBackgroundColor=none;fontColor=#E4FDE1;" vertex="1" parent="elaqadn__Zsb7Rm-6npa-30">
          <mxGeometry y="26" width="190" height="64" as="geometry" />
        </mxCell>
        <mxCell id="elaqadn__Zsb7Rm-6npa-45" value="" style="endArrow=block;endSize=16;endFill=0;html=1;rounded=1;labelBackgroundColor=none;strokeColor=#028090;fontColor=default;" parent="1" source="elaqadn__Zsb7Rm-6npa-18" target="G7_AeDBWMxpFMUD4EurX-3" edge="1">
          <mxGeometry x="0.1111" width="160" relative="1" as="geometry">
            <mxPoint x="580" y="370" as="sourcePoint" />
            <mxPoint x="720" y="380" as="targetPoint" />
            <mxPoint as="offset" />
          </mxGeometry>
        </mxCell>
        <mxCell id="elaqadn__Zsb7Rm-6npa-64" value="STATE" style="text;html=1;align=center;verticalAlign=middle;resizable=0;points=[];autosize=1;strokeColor=#BD7000;fillColor=#f0a30a;rounded=1;labelBackgroundColor=none;shadow=0;textShadow=0;glass=0;fontColor=#000000;gradientColor=default;" parent="1" vertex="1">
          <mxGeometry x="640" y="120" width="60" height="30" as="geometry" />
        </mxCell>
        <mxCell id="elaqadn__Zsb7Rm-6npa-68" value="Context" style="text;html=1;align=center;verticalAlign=middle;resizable=0;points=[];autosize=1;strokeColor=#BD7000;fillColor=#f0a30a;rounded=1;labelBackgroundColor=none;shadow=0;textShadow=0;glass=0;fontColor=#000000;gradientColor=default;" parent="1" vertex="1">
          <mxGeometry x="40" y="120" width="60" height="30" as="geometry" />
        </mxCell>
        <mxCell id="elaqadn__Zsb7Rm-6npa-79" value="" style="endArrow=block;endSize=16;endFill=0;html=1;rounded=1;labelBackgroundColor=none;strokeColor=#028090;fontColor=default;" parent="1" source="elaqadn__Zsb7Rm-6npa-30" edge="1" target="G7_AeDBWMxpFMUD4EurX-3">
          <mxGeometry x="0.1111" width="160" relative="1" as="geometry">
            <mxPoint x="456" y="330" as="sourcePoint" />
            <mxPoint x="619.0136054421769" y="250" as="targetPoint" />
            <mxPoint as="offset" />
          </mxGeometry>
        </mxCell>
        <mxCell id="elaqadn__Zsb7Rm-6npa-80" value="Cancelado" style="swimlane;fontStyle=0;childLayout=stackLayout;horizontal=1;startSize=26;fillColor=#F45B69;horizontalStack=0;resizeParent=1;resizeParentMax=0;resizeLast=0;collapsible=1;marginBottom=0;whiteSpace=wrap;html=1;fontColor=#E4FDE1;strokeColor=#028090;rounded=1;labelBackgroundColor=none;swimlaneFillColor=default;" parent="1" vertex="1">
          <mxGeometry x="600" y="450" width="220" height="120" as="geometry" />
        </mxCell>
        <mxCell id="xnKCgcT63qczrDErJ37x-8" value="+&amp;lt;&amp;lt;Create&amp;gt;&amp;gt; EnEvaluacion( proyecto : Proyecto)&lt;div&gt;+&amp;nbsp; aprobarEtapa()&lt;/div&gt;&lt;div&gt;+ modificarMargenDeGanancia (ganancia: Integer)&lt;/div&gt;&lt;div&gt;&lt;br&gt;&lt;/div&gt;&lt;div style=&quot;background-color:#2f2f2f;padding:0px 0px 0px 2px;&quot;&gt;&lt;div style=&quot;color: rgb(170, 170, 170); font-family: Consolas; font-size: 10pt; white-space: pre;&quot;&gt;&lt;p style=&quot;background-color:#373737;margin:0;&quot;&gt;&lt;span style=&quot;color:#d9e8f7;&quot;&gt;&lt;/span&gt;&lt;/p&gt;&lt;/div&gt;&lt;/div&gt;" style="text;strokeColor=none;fillColor=none;align=left;verticalAlign=top;spacingLeft=4;spacingRight=4;overflow=hidden;rotatable=0;points=[[0,0.5],[1,0.5]];portConstraint=eastwest;whiteSpace=wrap;html=1;rounded=1;labelBackgroundColor=none;fontColor=#E4FDE1;" vertex="1" parent="elaqadn__Zsb7Rm-6npa-80">
          <mxGeometry y="26" width="220" height="94" as="geometry" />
        </mxCell>
        <mxCell id="elaqadn__Zsb7Rm-6npa-82" value="" style="endArrow=block;endSize=16;endFill=0;html=1;rounded=1;labelBackgroundColor=none;strokeColor=#028090;fontColor=default;exitX=0.107;exitY=-0.004;exitDx=0;exitDy=0;entryX=0.512;entryY=1.04;entryDx=0;entryDy=0;entryPerimeter=0;exitPerimeter=0;" parent="1" source="elaqadn__Zsb7Rm-6npa-80" edge="1" target="G7_AeDBWMxpFMUD4EurX-3">
          <mxGeometry x="0.1111" width="160" relative="1" as="geometry">
            <mxPoint x="580" y="460" as="sourcePoint" />
            <mxPoint x="600" y="340" as="targetPoint" />
            <mxPoint as="offset" />
          </mxGeometry>
        </mxCell>
        <mxCell id="xnKCgcT63qczrDErJ37x-2" value="" style="endArrow=none;dashed=1;html=1;dashPattern=1 3;strokeWidth=2;rounded=0;fillColor=#d80073;strokeColor=#f45b69;" edge="1" parent="1">
          <mxGeometry width="50" height="50" relative="1" as="geometry">
            <mxPoint x="300" y="580" as="sourcePoint" />
            <mxPoint x="300" y="320" as="targetPoint" />
          </mxGeometry>
        </mxCell>
        <mxCell id="xnKCgcT63qczrDErJ37x-3" value="" style="endArrow=none;dashed=1;html=1;dashPattern=1 3;strokeWidth=2;rounded=0;fillColor=#d80073;strokeColor=#f45b69;" edge="1" parent="1">
          <mxGeometry width="50" height="50" relative="1" as="geometry">
            <mxPoint x="840" y="580" as="sourcePoint" />
            <mxPoint x="840" y="320" as="targetPoint" />
            <Array as="points">
              <mxPoint x="840" y="455" />
            </Array>
          </mxGeometry>
        </mxCell>
        <mxCell id="xnKCgcT63qczrDErJ37x-4" value="" style="endArrow=none;dashed=1;html=1;dashPattern=1 3;strokeWidth=2;rounded=0;fillColor=#d80073;strokeColor=#f45b69;" edge="1" parent="1" source="elaqadn__Zsb7Rm-6npa-66">
          <mxGeometry width="50" height="50" relative="1" as="geometry">
            <mxPoint x="840" y="320" as="sourcePoint" />
            <mxPoint x="300" y="320" as="targetPoint" />
          </mxGeometry>
        </mxCell>
        <mxCell id="xnKCgcT63qczrDErJ37x-5" value="" style="endArrow=none;dashed=1;html=1;dashPattern=1 3;strokeWidth=2;rounded=0;fillColor=#d80073;strokeColor=#f45b69;" edge="1" parent="1">
          <mxGeometry width="50" height="50" relative="1" as="geometry">
            <mxPoint x="840" y="580" as="sourcePoint" />
            <mxPoint x="300" y="580" as="targetPoint" />
          </mxGeometry>
        </mxCell>
        <mxCell id="xnKCgcT63qczrDErJ37x-10" value="Confirmado" style="swimlane;fontStyle=0;childLayout=stackLayout;horizontal=1;startSize=26;fillColor=#F45B69;horizontalStack=0;resizeParent=1;resizeParentMax=0;resizeLast=0;collapsible=1;marginBottom=0;whiteSpace=wrap;html=1;fontColor=#E4FDE1;strokeColor=#028090;rounded=1;labelBackgroundColor=none;swimlaneFillColor=default;" vertex="1" parent="1">
          <mxGeometry x="350" y="450" width="220" height="120" as="geometry" />
        </mxCell>
        <mxCell id="xnKCgcT63qczrDErJ37x-11" value="+&amp;lt;&amp;lt;Create&amp;gt;&amp;gt; EnEvaluacion( proyecto : Proyecto)&lt;div&gt;+&amp;nbsp; aprobarEtapa()&lt;/div&gt;&lt;div&gt;+ modificarMargenDeGanancia (ganancia: Integer)&lt;/div&gt;&lt;div&gt;&lt;br&gt;&lt;/div&gt;&lt;div style=&quot;background-color:#2f2f2f;padding:0px 0px 0px 2px;&quot;&gt;&lt;div style=&quot;color: rgb(170, 170, 170); font-family: Consolas; font-size: 10pt; white-space: pre;&quot;&gt;&lt;p style=&quot;background-color:#373737;margin:0;&quot;&gt;&lt;span style=&quot;color:#d9e8f7;&quot;&gt;&lt;/span&gt;&lt;/p&gt;&lt;/div&gt;&lt;/div&gt;" style="text;strokeColor=none;fillColor=none;align=left;verticalAlign=top;spacingLeft=4;spacingRight=4;overflow=hidden;rotatable=0;points=[[0,0.5],[1,0.5]];portConstraint=eastwest;whiteSpace=wrap;html=1;rounded=1;labelBackgroundColor=none;fontColor=#E4FDE1;" vertex="1" parent="xnKCgcT63qczrDErJ37x-10">
          <mxGeometry y="26" width="220" height="94" as="geometry" />
        </mxCell>
        <mxCell id="xnKCgcT63qczrDErJ37x-12" value="" style="endArrow=none;dashed=1;html=1;dashPattern=1 3;strokeWidth=2;rounded=0;fillColor=#d80073;strokeColor=#f45b69;" edge="1" parent="1" target="elaqadn__Zsb7Rm-6npa-66">
          <mxGeometry width="50" height="50" relative="1" as="geometry">
            <mxPoint x="840" y="320" as="sourcePoint" />
            <mxPoint x="300" y="320" as="targetPoint" />
          </mxGeometry>
        </mxCell>
        <mxCell id="elaqadn__Zsb7Rm-6npa-66" value="CONCRETE STATE" style="text;html=1;align=center;verticalAlign=middle;resizable=0;points=[];autosize=1;strokeColor=#BD7000;fillColor=#f0a30a;rounded=1;labelBackgroundColor=none;shadow=0;textShadow=0;glass=0;fontColor=#000000;gradientColor=default;" parent="1" vertex="1">
          <mxGeometry x="310" y="305" width="130" height="30" as="geometry" />
        </mxCell>
        <mxCell id="xnKCgcT63qczrDErJ37x-13" value="" style="endArrow=block;endSize=16;endFill=0;html=1;rounded=1;labelBackgroundColor=none;strokeColor=#028090;fontColor=default;entryX=0.448;entryY=1.04;entryDx=0;entryDy=0;entryPerimeter=0;" edge="1" parent="1" target="G7_AeDBWMxpFMUD4EurX-3">
          <mxGeometry x="0.1111" width="160" relative="1" as="geometry">
            <mxPoint x="550" y="450" as="sourcePoint" />
            <mxPoint x="570" y="290" as="targetPoint" />
            <mxPoint as="offset" />
          </mxGeometry>
        </mxCell>
      </root>
    </mxGraphModel>
  </diagram>
</mxfile>
